<svg width="39" height="43" viewBox="0 0 39 43" fill="none" xmlns="http://www.w3.org/2000/svg">
<path d="M16.1285 13.5643C16.4754 13.5643 16.8029 13.3542 16.9378 13.0103C17.092 12.571 16.88 12.0743 16.4368 11.9215L11.4077 10.0494C13.8548 8.40662 16.668 7.50879 19.6354 7.50879C27.7861 7.50879 34.4146 14.1374 34.4146 22.2751C34.4146 22.7527 34.8 23.1347 35.2624 23.1347C35.7249 23.1347 36.1102 22.7527 36.1102 22.2751C36.1102 13.2014 28.711 5.80866 19.6162 5.80866C16.5717 5.80866 13.6621 6.66828 11.0994 8.23469L12.0243 3.9175C12.1206 3.45904 11.8316 3.00057 11.3691 2.90506C10.9067 2.80955 10.4635 3.09609 10.3479 3.55455L8.78711 10.9091L15.8395 13.5261C15.9358 13.5643 16.0322 13.5834 16.1285 13.5834" fill="#231F20"/>
<path d="M16.1285 13.5643C16.4754 13.5643 16.8029 13.3542 16.9378 13.0103C17.092 12.571 16.88 12.0743 16.4368 11.9215L11.4077 10.0494C13.8548 8.40662 16.668 7.50879 19.6354 7.50879C27.7861 7.50879 34.4146 14.1374 34.4146 22.2751C34.4146 22.7527 34.8 23.1347 35.2624 23.1347C35.7249 23.1347 36.1102 22.7527 36.1102 22.2751C36.1102 13.2014 28.711 5.80866 19.6162 5.80866C16.5717 5.80866 13.6621 6.66828 11.0994 8.23469L12.0243 3.9175C12.1206 3.45904 11.8316 3.00057 11.3691 2.90506C10.9067 2.80955 10.4635 3.09609 10.3479 3.55455L8.78711 10.9091L15.8395 13.5261C15.9358 13.5643 16.0322 13.5834 16.1285 13.5834" stroke="#231F20" stroke-width="3" stroke-miterlimit="10"/>
<path d="M19.385 37.2129C22.4294 37.2129 25.339 36.3533 27.9018 34.7869L26.9961 39.1041C26.8998 39.5625 27.1888 40.021 27.6513 40.1165C27.7091 40.1165 27.7669 40.1165 27.8247 40.1165C28.2293 40.1165 28.5762 39.8491 28.6532 39.4479L30.214 32.0934L23.1809 29.4764C22.7377 29.3044 22.256 29.5337 22.0826 29.973C21.9092 30.4124 22.1404 30.909 22.5836 31.0619L27.6127 32.9339C25.1656 34.5768 22.3524 35.4746 19.385 35.4746C11.2343 35.4746 4.60581 28.846 4.60581 20.7083C4.60581 20.2307 4.22043 19.8486 3.75798 19.8486C3.29553 19.8486 2.91016 20.2307 2.91016 20.7083C2.91016 29.782 10.3094 37.1747 19.4042 37.1747" fill="#231F20"/>
<path d="M19.385 37.2129C22.4294 37.2129 25.339 36.3533 27.9018 34.7869L26.9961 39.1041C26.8998 39.5625 27.1888 40.021 27.6513 40.1165C27.7091 40.1165 27.7669 40.1165 27.8247 40.1165C28.2293 40.1165 28.5762 39.8491 28.6532 39.4479L30.214 32.0934L23.1809 29.4764C22.7377 29.3044 22.256 29.5337 22.0826 29.973C21.9092 30.4124 22.1404 30.909 22.5836 31.0619L27.6127 32.9339C25.1656 34.5768 22.3524 35.4746 19.385 35.4746C11.2343 35.4746 4.60581 28.846 4.60581 20.7083C4.60581 20.2307 4.22043 19.8486 3.75798 19.8486C3.29553 19.8486 2.91016 20.2307 2.91016 20.7083C2.91016 29.782 10.3094 37.1747 19.4042 37.1747" stroke="#231F20" stroke-width="3" stroke-miterlimit="10"/>
</svg>
